<mxfile host="Electron" modified="2023-12-11T04:11:05.518Z" agent="Mozilla/5.0 (Windows NT 10.0; Win64; x64) AppleWebKit/537.36 (KHTML, like Gecko) draw.io/22.1.2 Chrome/114.0.5735.289 Electron/25.9.4 Safari/537.36" etag="-IGglAyC8PqLAJZ8r81N" version="22.1.2" type="device">
  <diagram name="Page-1" id="UgcYrO6HkngrXnjO4cBm">
    <mxGraphModel dx="1430" dy="825" grid="1" gridSize="10" guides="1" tooltips="1" connect="1" arrows="1" fold="1" page="1" pageScale="1" pageWidth="1654" pageHeight="1169" math="0" shadow="0">
      <root>
        <mxCell id="0" />
        <mxCell id="1" parent="0" />
        <mxCell id="hIlBgX-GIg3YP2jSNJQO-34" value="" style="rounded=0;whiteSpace=wrap;html=1;strokeColor=#808080;gradientColor=#FFEFD4;fillColor=#FFFDF0;gradientDirection=west;" parent="1" vertex="1">
          <mxGeometry x="40" y="218" width="156" height="76" as="geometry" />
        </mxCell>
        <mxCell id="hIlBgX-GIg3YP2jSNJQO-15" value="" style="rounded=0;whiteSpace=wrap;html=1;strokeColor=#808080;dashed=1;dashPattern=1 1;gradientColor=#D9FFD1;gradientDirection=west;fillColor=#F0FFF0;" parent="1" vertex="1">
          <mxGeometry x="210" y="412" width="305" height="183" as="geometry" />
        </mxCell>
        <mxCell id="hIlBgX-GIg3YP2jSNJQO-9" value="" style="rounded=0;whiteSpace=wrap;html=1;strokeColor=#808080;dashed=1;dashPattern=1 1;gradientColor=#E6E9FF;fillColor=#EBFEFF;gradientDirection=west;" parent="1" vertex="1">
          <mxGeometry x="210" y="40" width="290" height="339" as="geometry" />
        </mxCell>
        <mxCell id="hIlBgX-GIg3YP2jSNJQO-3" value="" style="image;points=[];aspect=fixed;html=1;align=center;shadow=0;dashed=0;image=img/lib/allied_telesis/computer_and_terminals/Server_Desktop.svg;" parent="1" vertex="1">
          <mxGeometry x="295" y="52" width="23.67" height="30" as="geometry" />
        </mxCell>
        <mxCell id="hIlBgX-GIg3YP2jSNJQO-4" value="Proxmox Server" style="text;html=1;strokeColor=none;fillColor=none;align=left;verticalAlign=middle;whiteSpace=wrap;rounded=0;fontStyle=0" parent="1" vertex="1">
          <mxGeometry x="324" y="52" width="91" height="30" as="geometry" />
        </mxCell>
        <mxCell id="hIlBgX-GIg3YP2jSNJQO-5" value="" style="rounded=0;whiteSpace=wrap;html=1;fillColor=#DAE4F5;fontColor=#333333;strokeColor=#808080;dashed=1;" parent="1" vertex="1">
          <mxGeometry x="230" y="229" width="250" height="133" as="geometry" />
        </mxCell>
        <mxCell id="hIlBgX-GIg3YP2jSNJQO-1" value="&lt;b&gt;Backend&lt;/b&gt;&lt;br&gt;z.B. Java, Kotlin, Rust, TypeScript" style="rounded=0;whiteSpace=wrap;html=1;fillColor=#dae8fc;strokeColor=#6c8ebf;fontStyle=0" parent="1" vertex="1">
          <mxGeometry x="250" y="277" width="160" height="70" as="geometry" />
        </mxCell>
        <mxCell id="hIlBgX-GIg3YP2jSNJQO-6" value="&lt;b&gt;&lt;font style=&quot;font-size: 11px;&quot;&gt;Container&lt;/font&gt;&lt;/b&gt;&amp;nbsp;(Ubuntu LTS)" style="text;html=1;strokeColor=none;fillColor=none;align=left;verticalAlign=middle;whiteSpace=wrap;rounded=0;" parent="1" vertex="1">
          <mxGeometry x="286.49" y="241" width="200" height="30" as="geometry" />
        </mxCell>
        <mxCell id="hIlBgX-GIg3YP2jSNJQO-8" value="" style="image;points=[];aspect=fixed;html=1;align=center;shadow=0;dashed=0;image=img/lib/allied_telesis/computer_and_terminals/Smartphone.svg;" parent="1" vertex="1">
          <mxGeometry x="315.48" y="423" width="14.67" height="32" as="geometry" />
        </mxCell>
        <mxCell id="hIlBgX-GIg3YP2jSNJQO-12" value="" style="image;sketch=0;aspect=fixed;html=1;points=[];align=center;fontSize=12;image=img/lib/mscae/Docker.svg;" parent="1" vertex="1">
          <mxGeometry x="250" y="241" width="30.49" height="25" as="geometry" />
        </mxCell>
        <mxCell id="hIlBgX-GIg3YP2jSNJQO-14" value="Smartphone" style="text;html=1;strokeColor=none;fillColor=none;align=left;verticalAlign=middle;whiteSpace=wrap;rounded=0;fontStyle=0" parent="1" vertex="1">
          <mxGeometry x="336.20000000000005" y="426" width="69.28" height="30" as="geometry" />
        </mxCell>
        <mxCell id="hIlBgX-GIg3YP2jSNJQO-16" value="" style="rounded=0;whiteSpace=wrap;html=1;fillColor=#F2FFF2;fontColor=#333333;strokeColor=#808080;dashed=1;" parent="1" vertex="1">
          <mxGeometry x="230" y="465" width="264" height="112" as="geometry" />
        </mxCell>
        <mxCell id="hIlBgX-GIg3YP2jSNJQO-17" value="&lt;b&gt;Progressive Web App&lt;/b&gt;&amp;nbsp;(optional extension)" style="text;html=1;strokeColor=none;fillColor=none;align=left;verticalAlign=middle;whiteSpace=wrap;rounded=0;" parent="1" vertex="1">
          <mxGeometry x="246.95000000000005" y="472" width="239.05" height="30" as="geometry" />
        </mxCell>
        <mxCell id="hIlBgX-GIg3YP2jSNJQO-18" value="&lt;b&gt;Frontend&lt;/b&gt;&lt;br&gt;Vue.js" style="rounded=0;whiteSpace=wrap;html=1;fillColor=#d5e8d4;strokeColor=#82b366;fontStyle=0;align=left;spacingLeft=-66;spacingBottom=0;labelPosition=right;verticalLabelPosition=middle;verticalAlign=middle;" parent="1" vertex="1">
          <mxGeometry x="248.95000000000005" y="505" width="121.05" height="57" as="geometry" />
        </mxCell>
        <mxCell id="hIlBgX-GIg3YP2jSNJQO-19" value="needed for offline support" style="text;html=1;strokeColor=none;fillColor=none;align=center;verticalAlign=middle;whiteSpace=wrap;rounded=0;fontColor=#999999;fontStyle=2" parent="1" vertex="1">
          <mxGeometry x="398.48" y="501" width="60" height="40" as="geometry" />
        </mxCell>
        <mxCell id="hIlBgX-GIg3YP2jSNJQO-31" value="" style="shape=image;verticalLabelPosition=bottom;labelBackgroundColor=default;verticalAlign=top;aspect=fixed;imageAspect=0;image=data:image/png,iVBORw0KGgoAAAANSUhEUgAAAGAAAABgCAYAAADimHc4AAAACXBIWXMAAAsTAAALEwEAmpwYAAAMb0lEQVR4nO1dC1hN2R7/d04h5dHLiCavvJWSRFJK0sWVOx6Z8WYarvF+G29DIs87BnkzHndcZhjGZYxHGOQqeUWUFHpsGuR6Ff7zrd3ep3V2p1Jnn7PPqf37vt/XJ5211v/323uttdf673UAZMiQIUOGjLINJwCYyP2UIQESAQAB4I6svjRAijJkA8ofUL4DZAPKNVC+A2QDyjXuytNQaeEEABMAoIHE7ZAhQx02AHAGAK4CgKuRi+PGxRHFxWUUGEbNTrK4IIwRblz7+ViGgJGgjqDhxmiCUPwsLi6jgSsAPKECeAoAHqUsyxQAOgDAVAD4EQAuAwADAG+4ssnPDO73/+b+rj0AKEVse2swQrhpuIqcS/B5bwDYJiijJPwTALYAgE8J6nQuA3dvkSbsh6JhAgDBAHCllKIXxhgA6MWVXxR+Kkvi8yBBPOaCWgCFwwUAzmoS0MneAod2dsTvR7ng8UVeeCvSHzN2BWHm7jySf/8e5oXf/dMZhwU6Yt1PKhdmxLliRF3A/d3jsiI+D1sAcAcABRQE+d03AJBLi1XF3BRHdq2Lp8Lbq4QuCU8vaY/DAx2xamVToQk5ADCziLa4c+0tF6gKAEdpgSpVUOKkz5zwzqZOpRJeSFLOuOD6aF5RKTTiMFd/uUVNALhGi+LrbIMx//IVRXgho1f6oFdTa6EJcQBgB+UQdgBwgxdCYWKC34Q0wvRdXXQiPk9SPrm7TEzUTLhZnrocgkoAcIEXoIKZAjeMddWp8EJGjmmJZkoT4eBM2lUusI0P3FRpgtsmuulVfJ5bJ7ix9VMmbIBygD50H7x4YDNM3RyIj7Z3wUxqWqkvhg9tJhwTekMZRnVuCYEN9jMPe4wL75jPJR0xfqU/Jq4LwIfbAvVmwue+tWkD0gGgGpRRrOQDdbA2x4vfdlA3QMAby/0wObIzpu/UrQFJWwLQ0c6cNmE5lDGYAIAXALzlgwxqWQPH/a0+zghuiGuGuuChKZ6FGnF1aUdMXBuAGTqcIZHxgDLgFQDYg5HDCgC+BICD3Gpises11SqboX9zW5zfuwmenetdwIjryzqy44WuTGjTyIpuz2IwUjQFgO0A8FqbxbOKZgoMbl0Tf57UpoARd9Z00smAvWNSK+FYYAZGdsVvBoD3mgS1trFFX7/OOHj4SBwzYRrOmL2Q/TlwSCj6+AWgja2dRiMUChPs4V4TT87yUjPh5go/TPtB/Ic0B1u1saALGAnI8nGaUDyXlq1YoY+dvoQZz94jk41F8kJsAs4PW46ubq0LGFHV3BQX92sq6JL88NEOcceFUd3r0fWuBQNHRW7DQ00sbx8/3HvgWLGCF8Wjp6IxMKh7ASN6tamFlxf55psQ4YdpO8Qz4OAcT7q+eDBgVOEyBVQNtq9VW2vhGQFJeTXta6mZ4OlkhecX5E9hbyz3xwyRpqoPtgey4w9X1weuazU4WHJrJypRevyjDyakZIkqPsMx4f4T7B7cS82E1vWrqz1H3FrlL9pd0LJeVbqudmBgUHBTS1Ujp8yYqxPhGQEnTp2lZkJACzu8sjh/TLgX2VkUA4Lb2dP19AcDw3wpxGc4Tpo2W82E0YH11B7Y0kQYlEOD6tB1jC0kJXIyAEzTwMm6fGetHb1tOHr8VL2Kz3Ac+fUElUBkNXPXaHdRu6LxPRvQBpCt0sLeTSuMOnlnTcntHrGVdOjYCdOfvpPEgIdP3rJTXL4tTWpZYmxY/szowVbtnpbJ9iUl5vQisrL1akAoX4GFhSXGxqdIIj7D8dz/4tHcPD/zYV7vxvl3wWp/Mbug8Rq0IF3MbAAI18BZusjWJplpSXyjZs4Nk1R8huOUGfNUQn1qY652F2jzgNbDsyZtQD/Q8/SSXOm/AEAKALzjUjgy+QbZ2tXA+xn/l1x8hkxPU7LQ0rKKSqwVA1uoDCCrp6U1wEV9GkpWcfUytRz3MauW5LaPWLUeM59/kNwAJhtx1JhJqrb5NrVR20sojfip2wPZPWrqQUznaSukgv8WJ7yQAYFdMSXzpeQGxNxIRhOTvH3dCqYKtSfk0nRDB+a0oeO8rWvxKwlTAevVd8IFi1fg2Us38eHjN/iAeY0nzsVir75fYG2HT9VM8PL2Zf9fahNcqBnR6sHOKgOSN5b8wWxE17p0jGt0bcB6vjJyFZEnzUdZOYUGSgwZO3G6mgkjRo2X3IBRYyer2vOlXx2VAQnflSyzLm1nF6xlXYmOL0iX4rfj+ji2soVLVn10wGTJmDbufMxtSQ3YvOM/qvZ4N7ZWX7KOyDPi/sbOxS7YbRrnKtyQIbM/neEQX9nfe/YucdDkM+SzSqWSXceX0oDT56/md6E1Khe6t3xtaUe8+32nvBQYgfgk09q1fjXagEW6FN+aX1IgV3B03N0SB036/oiV6/DAkdOSCX8vLRv3HzqBy1avVwlXyUyJC/o0wY2hrnh6TnvNm/xL8rY103d2UcuUo8Qn26mf6NKAHnxl7h5tJb16mRLyj8u32K3MZi1c2LuvqJkayf8kd8QQX0fcM8Zd4x2Rsilv2aKxgyX92QjQMabwlQ376mvJRWU+guRKb9O2fYmmykK61qmGa4bmz5J4km6pmWMVfjzM0Edi1ly+UWR5V2pxmWLm+UFde2gU1NTUFFu6umPvvv2x7+eDsINvJxwwJBT79BuIrVp7YoWKFTV+rm1DK/x1als1E47ManuAO/6sIegBE/jGDP9qtOQiM0WQdDW0eERUsvu2e9+vxT4Ipma+wh9/Poq9QwYUMMOiohLDQvI2+eNX+6cganxbRmfozjeEXClSi8wUwebOeYOjQqHA/oOG4/U7aaUq51rCI/ZiE44bXVzt3iZFBug9F7Q1PY+PvXlfcqGZQkiWvectWoZRF66JUt7vZ2PQqWFjYbe0VJ/idxUuuh0/c1lyoRk9Mjn9BbuWJTBB07q/6BhDZ66RQWz6rG8lF4SRgGl/5qoeJjnmcm/j6wz96aWHho2asMlPUgvBSEiytuXZzps2gez1WuhCfF9uY0U18N598FRyARgD4NXbD9m8VcoEkvUhKoij92jxkx49lzxwxoC4eu0W2oAXYr8xuYov3MrKWvLNdMYASXb3+OluEakopYID3fVs+WGf5MEyBsrILXtoA0iPIQqW8IV6eHpJHiRjwCS5RlbWNrQJWh+1Zsadl8MWuO/gccmDZAycZE2JMoCkGGoFH74wspdrKFkMjAFz5ZpNtAF7tTVgoSHt2zJGwKMnL9IGkDRMrXCcL2zrzv2SB8cYAeOTMmkDyJlxWuE2XxhJMZE6OMZInowF7wprhed8YYaSSsgYlwHkpXKtwB/paBAZbIzxdUEkH1Yr8IfksdkDUgfHGAGPnFAbhMlxxVpBlU5+NloeA5iPMGBhRCRtwG5tDTjCF7Zq3S7Jry7GwJn+7AMGdusn6oPYHL6wkEFjMOO59EEyBszo+Gy0rKKWGUfOMNUKAXxhtnb2GJcofRYzY6C8l/EeZy/eJtyYATHWgtL5QpevP4xJ6dK8VMcYMFMev8eouJfYoJEzbcAMEAlhfKHNW3pi1NVXeC+z+EMzygtTH7/Hc9df49R562jxs8XckKlLn1I1L2Innrn+Wr4TshET096x4u/7LRGrVrfW6Zak6i6oVt0G9x5NwKirr/Facg5mPpP+KmT0TDIZuXYvh9Xg+KWn2MK1LS0+ef/XXBd7wql8JY2auuKxi0/YBlyIf4N3095h5vPyIfztB7n4x403bOwnYrLRp1MwLX4O930FOoEXfYRYM2cP/CXqIdsQwvM33+Ct1FxMfVK2xofMZ8iOedeTc/AcJzzhkfOZ2KZ9oDAxS9OZEKJiAJ0X5Fi3EW7Yc17VKJ7kCrl85y1eScrBG/dz8dYD42F8ai5ev5+LcUk5eCnhLTveCeOL3H0OHRydhOLr7YC+kdzL12zFSqUp9hs8Hg+fTS/Q0LLGfb8lYnCfUFQo1JJzP3Cp+sV9q4ao6MblvqgaUsncAnuGjMB1O8/gydgXkosVJRKPRWdh+JqfMKBrCJpVKPCuwDMACAGJUF/4pQk8K1tUQY92ARjUYwCGDBqHI8YtVHFm2BY8HfdKFeCpKy/Z39F/IyWHjJzJtrlzt37YpLk7mplVKBAf9cUN9cAA0BcAYgtppEbOCtuqMoCIX5LPgvQkZ9wFggHCmzvzU5XCWAT7CwZ2NGB+4L6hI1yMxTV94VNunBjMLcnSZ+F8IRiwTDhDwg2E8wBgEveVgz7c67gyZMiQIUMG6BN/AYD9sar5gAmNAAAAAElFTkSuQmCC;" parent="1" vertex="1">
          <mxGeometry x="56" y="229" width="30" height="30" as="geometry" />
        </mxCell>
        <mxCell id="hIlBgX-GIg3YP2jSNJQO-32" value="Weather Station" style="text;html=1;strokeColor=none;fillColor=none;align=left;verticalAlign=middle;whiteSpace=wrap;rounded=0;fontStyle=0" parent="1" vertex="1">
          <mxGeometry x="91.66999999999996" y="231" width="91" height="30" as="geometry" />
        </mxCell>
        <mxCell id="hIlBgX-GIg3YP2jSNJQO-36" value="measures data on field" style="text;html=1;strokeColor=none;fillColor=none;align=left;verticalAlign=top;whiteSpace=wrap;rounded=0;fontStyle=0;fontColor=#666666;fontSize=11;" parent="1" vertex="1">
          <mxGeometry x="56" y="259" width="130" height="25" as="geometry" />
        </mxCell>
        <mxCell id="hIlBgX-GIg3YP2jSNJQO-37" value="" style="curved=1;endArrow=classic;html=1;rounded=0;" parent="1" source="hIlBgX-GIg3YP2jSNJQO-18" target="hIlBgX-GIg3YP2jSNJQO-1" edge="1">
          <mxGeometry width="50" height="50" relative="1" as="geometry">
            <mxPoint x="480" y="442" as="sourcePoint" />
            <mxPoint x="530" y="392" as="targetPoint" />
            <Array as="points">
              <mxPoint x="220" y="522" />
              <mxPoint x="180" y="482" />
              <mxPoint x="160" y="412" />
              <mxPoint x="230" y="392" />
            </Array>
          </mxGeometry>
        </mxCell>
        <mxCell id="hIlBgX-GIg3YP2jSNJQO-38" value="communicate" style="edgeLabel;html=1;align=center;verticalAlign=middle;resizable=0;points=[];labelBackgroundColor=default;rotation=-35;" parent="hIlBgX-GIg3YP2jSNJQO-37" vertex="1" connectable="0">
          <mxGeometry x="0.0514" y="-6" relative="1" as="geometry">
            <mxPoint x="8" y="23" as="offset" />
          </mxGeometry>
        </mxCell>
        <mxCell id="hIlBgX-GIg3YP2jSNJQO-40" value="" style="curved=1;endArrow=classic;html=1;rounded=0;" parent="1" source="hIlBgX-GIg3YP2jSNJQO-1" target="hIlBgX-GIg3YP2jSNJQO-34" edge="1">
          <mxGeometry width="50" height="50" relative="1" as="geometry">
            <mxPoint x="370" y="302" as="sourcePoint" />
            <mxPoint x="420" y="252" as="targetPoint" />
            <Array as="points">
              <mxPoint x="200" y="322" />
              <mxPoint x="150" y="352" />
            </Array>
          </mxGeometry>
        </mxCell>
        <mxCell id="hIlBgX-GIg3YP2jSNJQO-41" value="request&lt;br style=&quot;font-size: 9px;&quot;&gt;data" style="edgeLabel;html=1;align=center;verticalAlign=middle;resizable=0;points=[];labelBackgroundColor=default;fontSize=9;" parent="hIlBgX-GIg3YP2jSNJQO-40" vertex="1" connectable="0">
          <mxGeometry x="0.0683" y="1" relative="1" as="geometry">
            <mxPoint x="17" y="-12" as="offset" />
          </mxGeometry>
        </mxCell>
        <mxCell id="hIlBgX-GIg3YP2jSNJQO-46" value="" style="rounded=0;whiteSpace=wrap;html=1;fillColor=#DAE4F5;fontColor=#333333;strokeColor=#808080;dashed=1;" parent="1" vertex="1">
          <mxGeometry x="230" y="92" width="250" height="116" as="geometry" />
        </mxCell>
        <mxCell id="hIlBgX-GIg3YP2jSNJQO-47" value="&lt;b&gt;&lt;font style=&quot;font-size: 11px;&quot;&gt;Container&lt;/font&gt;&lt;/b&gt;&amp;nbsp;(MariaDB, Postgres, ...)" style="text;html=1;strokeColor=none;fillColor=none;align=left;verticalAlign=middle;whiteSpace=wrap;rounded=0;" parent="1" vertex="1">
          <mxGeometry x="285.44" y="102" width="194.56" height="30" as="geometry" />
        </mxCell>
        <mxCell id="hIlBgX-GIg3YP2jSNJQO-48" value="" style="image;sketch=0;aspect=fixed;html=1;points=[];align=center;fontSize=12;image=img/lib/mscae/Docker.svg;" parent="1" vertex="1">
          <mxGeometry x="248.95000000000005" y="102" width="30.49" height="25" as="geometry" />
        </mxCell>
        <mxCell id="hIlBgX-GIg3YP2jSNJQO-49" value="" style="rounded=0;whiteSpace=wrap;html=1;fillColor=#DEDEFC;strokeColor=#8671BF;fontStyle=0" parent="1" vertex="1">
          <mxGeometry x="250" y="140" width="105" height="53" as="geometry" />
        </mxCell>
        <mxCell id="hIlBgX-GIg3YP2jSNJQO-43" value="" style="image;aspect=fixed;html=1;points=[];align=center;fontSize=12;image=img/lib/azure2/databases/SQL_Database.svg;" parent="1" vertex="1">
          <mxGeometry x="261.96000000000004" y="152" width="21.75" height="29" as="geometry" />
        </mxCell>
        <mxCell id="hIlBgX-GIg3YP2jSNJQO-44" value="Database" style="text;html=1;strokeColor=none;fillColor=none;align=left;verticalAlign=middle;whiteSpace=wrap;rounded=0;fontStyle=0" parent="1" vertex="1">
          <mxGeometry x="288.71000000000004" y="153" width="57" height="30" as="geometry" />
        </mxCell>
        <mxCell id="hIlBgX-GIg3YP2jSNJQO-50" value="" style="curved=1;endArrow=classic;html=1;rounded=0;" parent="1" source="hIlBgX-GIg3YP2jSNJQO-1" target="hIlBgX-GIg3YP2jSNJQO-49" edge="1">
          <mxGeometry width="50" height="50" relative="1" as="geometry">
            <mxPoint x="390" y="292" as="sourcePoint" />
            <mxPoint x="440" y="242" as="targetPoint" />
            <Array as="points">
              <mxPoint x="450" y="312" />
              <mxPoint x="500" y="292" />
              <mxPoint x="550" y="222" />
              <mxPoint x="460" y="182" />
            </Array>
          </mxGeometry>
        </mxCell>
        <mxCell id="hIlBgX-GIg3YP2jSNJQO-51" value="reads /&lt;br&gt;writes" style="edgeLabel;html=1;align=center;verticalAlign=middle;resizable=0;points=[];labelBackgroundColor=default;rotation=40;" parent="1" vertex="1" connectable="0">
          <mxGeometry x="530.0023195488016" y="253.50371717686858" as="geometry" />
        </mxCell>
        <mxCell id="hIlBgX-GIg3YP2jSNJQO-55" value="" style="shape=image;verticalLabelPosition=bottom;labelBackgroundColor=default;verticalAlign=top;aspect=fixed;imageAspect=0;image=data:image/png,iVBORw0KGgoAAAANSUhEUgAAAQAAAADeCAYAAADSMd6NAAABhGlDQ1BJQ0MgcHJvZmlsZQAAKJF9kT1Iw0AcxV9TpaIVUTuIOGSoTnZREcdSxSJYKG2FVh1MLv2CJg1Jiouj4Fpw8GOx6uDirKuDqyAIfoC4ujgpukiJ/0sKLWI8OO7Hu3uPu3eA0Kgw1eyKAqpmGal4TMzmVsXAK4Logx9DGJSYqSfSixl4jq97+Ph6F+FZ3uf+HP1K3mSATySOMt2wiDeIZzctnfM+cYiVJIX4nHjSoAsSP3JddvmNc9FhgWeGjExqnjhELBY7WO5gVjJU4hnisKJqlC9kXVY4b3FWKzXWuid/YTCvraS5TnMMcSwhgSREyKihjAosRGjVSDGRov2Yh3/U8SfJJZOrDEaOBVShQnL84H/wu1uzMD3lJgVjQPeLbX+MA4FdoFm37e9j226eAP5n4Epr+6sNYO6T9HpbCx8BA9vAxXVbk/eAyx1g5EmXDMmR/DSFQgF4P6NvygHDt0Dvmttbax+nD0CGulq+AQ4OgYkiZa97vLuns7d/z7T6+wFT0HKaz2O4HQAAAAZiS0dEAP8A/wD/oL2nkwAAAAlwSFlzAAAuIwAALiMBeKU/dgAAAAd0SU1FB+cMCwMUA2CF0ywAAAAZdEVYdENvbW1lbnQAQ3JlYXRlZCB3aXRoIEdJTVBXgQ4XAAAYnklEQVR42u2deXhdVbnG32/vMyVtU9ImUUEqCIIigiQdKKVNCj17P4/TVcqjiDh0QMVHSTonZ++2DGkp0AJlUATuBUXkXsHx3oIVJHs5giICKpMKKFIpxba0oU1yztnr/nECD9KWZjjDXt/53v+aZljrW+t717f22mf9qHVz9w8AzAYD9T+6PdGv/mWZ2Hay6J6HfnTLh1AFav7I5+7WoT7NxLYnZ08Mk8dPGGAyFPdQ6+buEwA8BMA2vTc6G6L3W89C78gZ2X6qtT/40Pdvvot18n9s3of1nvyPjByfCTGMPecIUMziMBQ5AO+3lOs/CuBGDj2iuIVUW6O5BtYfXjHlK1+Kc03+yV/8UkL3h1eY2v7U7EYuyQ8A1yvX/1OhN4SVAHZw6FX8iHGw31ljZuPz+tj83/Z8masBhFv2tCOvjzax7fbRNYhPGsdlKLYTaDUAWACgHP8lABex6BoBqZkGVwFZvbrlrIUN3JK/5ewFTTob+sbOqVObAGIzHKsD19v+mgEAAJF1HYDHOfTOnphCfEqdocukHq97s93cDEDvyq1FCCMHJT5lPOwJSS5D8Uci6/pX//GaAQROJgtgCZdeJic3gJJm7td0Ti9sPnP+iVzGonnu/Gad0/OMXPxrLKRaJnLy4sWBk8ntYwAAoFz/bgCbOPTSqokh0TrB0OUSNvbmr+IwDid755Puy2+EhpFunJg1EVQT45L8P1Suf8+/5cm+lkdLAGQ59DbxnnpYjWY+VNc53db80XlzTR+Dgcd2fxw5faqRi8hb4ki++xAuyT8A0NJ9+vjGLyjHexLANRx6TDYhafKx4EC4fsrCL9SY2v6Wz55bq/vDy0xtf6q1CbDZPPm7SrneXw5qAINVwEUAtnHodfzwsbCPqTWz8Xl9RH5r/yJjDWx7dgnyepKJbY+9uxaxt4/hkvxbQbRmv1XO/r6oHO9lAD6X3qdObTT2CEdnw66WsxceZtzq/8kFh+ts2Glk0C0gOaMJjJRRjrdryAZQWDpjNwF4mEPv7UOSSJxs6F5OY2y4K3uJac0Od+fWQcPI0isxvR72+ASX5P/dGCt+y5t43f6lTusMAXRwiULypImgWkNf48zpc5rnzptmSnObz5h/CnL6bBNDTWNsJN8/AYzUfld6RThsAwAA5foKwB0cokApG8k2Q1+w0yDdF26cuqwj8huZaYvPt3R/fiO0oQtF20RQ0uaS/P+tXP+XB9ntHFTLAfRxiEbimPGw3mZoaZfT03J/fvmcqDcz+/SuzyKnJxu59T8sicS7xnNJ/j0ArRjC4443l3L9ZwGsZxESi5BqNfrTgutaPn3u2Ki2r+XTC8fp/nCtqfFNzWoELDbHfpcp1/v7qA0AAIjoUgDPc4hK7NAxiL3X0OOdUB+qd2Yj+2Rd78x5CPFWI+fF+8Yi9rZaLsn/HIguH9KaOJRvChyvF0Anl+ikpjca+4KHzoZLWs5acGTkVv9PzD9aZ0MzHxrbhNTJjWCk5crx9hTNAADAtu3bANzPYidQl0BiRr2h+wCkwt25yL1dF/bmL4OGkR+ZS5xaD2scm3tYfkmx2P8MOReG+o33zenSANoBU5/v/ruSJ0wAjTP0aW9On9k8d15bVJrTPHfeHOT0x0wMJY23kTyBzbFfCFB7cHqnLroBAIBy/d8AuJVDpChhmXssCED3hVdNXXhexV9smHLuubbeG15p7HawrREUZ3PN1y3K9X43rGp4+JmDLgC9HKKVOLoO9iRDL3rI6RNz2/aeW+lm5F/MfgF5fbyRW/93pBB/Zx2X5N9FRN6wt8PD/QHl+FsAXMIiZERIzjT3nW89EF7c8skFFXvHueWsBfV6QBt7lVxqZiOna77WBI73QskNoJA3dAWAZzhELfaWGsTfb+hljyEadW9+VcUM6JX8hQi1kdflxJvrYDfVcEn+vxCwcSQ/OCIDCByvD8BSLtFLTm0AYsYeC365ee78Y8v9d5vnzj9OZ8PzjAxanJCcwuqar6WB6/eXzQAAQLn+9wAEHKJnjY0jOcvY68Piuj9f9rv2dX/+SmgYeVdWsnUirDFsjv3uVa7/wxHP/VFtoQvHgnkOUUy8tx5Ub+jdb1n9geYz5n2gbKv/GfM+gqx2jDT7CTEkjmNzzVcOo/zE7qgMIChQhW7iEEnjqUJ94YYp55WeKjT1vPMSui+83NQ4JXnRfb6uXP9PFTOAQuaQD2Anh2gWqEIpMxuf1+/OP196qlDu+b3tyOtjTAyRfRQvug/IGvUD4FEbgHK8lwBcyCKkrxJgTK0CsuGqlrNLRxVq+eSCJp0NPVPjw+zY7wLlZLZX3AAKeUPXAXiCQ1TthhTiUwz9THiIQ/SuXMmoQnp3fg1CGBmc+LTxsCekuCT/n4isrxXjFxXFAALXywJYzCW6yZaJBlOFwoUtJaAKNZ85v1nnwvlGFnYpC6lmVsd+i15P96m4AQCvUYVYsO2tWrOpQmFf8alCeq/BdJ9WVnSfH72R7hMJAxjUYghVqPLKFpcq1PwfnzOX7tMUR4IX3aeo/M6iGoBy/ScBXMch0gyoQpdPPveLo970Tl74hRqd1cYe+6XamkB86D5X74/uE6UKAER0AYQqVHnl9ZHh1r5Rrxbhi/3Lhe4TCW0l0MVFr5CK/QuDAlVoJZeoG04V6mz5xIK3jfTnWz6x4O16IFxuZOctIMWL7uMF7v7pPpEyAACoicVuBPAIh6gbTRUKMVa/kr90xAbySv4yk+k+FiO6D1nWzSXyyeLrx6cLVSgyVUAuPKd57vypw/255rnzTtHZ8CwT+8yQ7tMRpDOhMQYAAMr1AwB3coi++VSh/NXTuzuHvJGZ2tlu6b3hRhi6+WFI9/lFCXdKpcwcWgahClVeOT2t/7cvfGrI3/74y59B3lC6z6EJXnQfOjjdJ7IGoBzvWQAbWAyF6VShrF43+TOfPyhVaPKnFo7TWW3slW+p1iZOdJ/LlXNwuk90KwAARLQOQhWqvPL6sHDHwEHhLuGuXAZ5LXSfyus5EJWc/1ByAxikCmW4jEpqurn8OJ0NF7ecteCIA/1/y8cXHKWz4SIjO8eP7tM5VLpPpA0AABKJmlsBPMBiJ1CXQGKGoceCGjW6N3fAt/rCPbn1QveJhH5JlnV7WeZzOf7IPbOX8KIKnTjRWKqQzuozm8+Y1/rGrzefMe80ZPVHTewT1bGi+2gQdQTpjGZjAACgXP8BCFUoGjOsL9w4ddmi1xxsSseXY7ov3Ghqf1KzmdF9HO/BslW0ZU0cTlSho+pgH24oVSivT8w9tWPBa/98pvfzQveJhHZTmZ+Xlf1pVuvm7gyANRxGK7d1L/bc9pyhDzNomz0x/i4Q7PxLA08hhJE3Zoz59OGwG9kAPlYo1y8r+bnsdROBF1UodqKpVCHdGL6cWxXuzK42NfnjzeM4Jf9fiayyb8PKbgCB6/UBWMZl1FLTGoC4sceCX9FZ/SUz92CE5JQGMNKSwMn0szcAAFCu/11wogqdai5VyFi6z8wJQvcx1QAKewHqABeq0PEGU4UMFE2IIfHeei7dyYOoYi9fVcwAlOM9AqEKiUay7WpjRfe5XjneH6vOAAargJUQqpBoGLKPqkH8HWzoPjsAWl3RLWwl/7hyvG0QqpBoOKv/qazoPquU6/2rag1gsAlfBfAki9WpIYX45DrJ0lJVWVPHw57Ipsp6jAjXVzz7Kt0A5WYGwIkqNLnBWKpQpAuslIVUCze6j5+regMomIB/F4C7OYyqVRtDYtYEydgiixnd53+V6/8kEvM1Qh7Phyp0XD2shrhkbbEmaVMcSU50H8KSyMQ2Kg1RrvcEgGtZlKuGU4WiplRbI8CJ7uP4fxYD2G/m0EUAXuIwyvFJBlOFIqQC3Wcsl+5sJav4dB82BqAcbycAn83KNYPVkVUFFgQgeQqrSsoL0sWn+/CpAABYFt0E4FEOo23XG0wVioASp9TDPiTJpTsPEdk3Ry7fotagnrSXR+H6MBYymSpU0cV/jMWJ7qMBag+crlAMYChbgQJV6LssJnLKRrK1QTJ6uMbZ1sCJ7nOHcr1fRLFhkV2aqHBnAA+q0LEGU4UqMSmZ0X2oQMiCGMAwFLj+MwCu4DGjzaYKlVvM6D4bghLTfVgawGAZcAmALRxmgdFUoXLGiRndZ5CMBTGAkTwLcPxeAF1sVrbpjVG33MqKId0nKAPdh28FAIBsixlVqF4S/QBiRvf5lZWI3R75ORn1BgZzMppYUYUmGEsVKqnR19lIvo/NsV8IoL1ndqcWAyiGCRSoQrexmOgJ22iqUMm2R7MbQQk2+6NvKNd/0ISGGhNxIloBRlQh6/CkZP2rW/9JKcTfyeaar90gMoaGbYwBBI63BcClLKaIRUjNkuvDXlv9ZzUCxObYb61yvBfEAEpTB6yHUIVYKX7SONhNfOg+ILrSqLXIpMaqAlVoBZuVb1oDEKvijwvGCcmprJ6HLFOO1y8GUFIT8O8AoFjsBMbGkZxZvdeHJWexovv8VLn+942bg4YGuwOFoxbjlTi+HnRI9VGFhO4jBjCaKuBhcKIKza6+zwkwo/t8XTneH8QAypk4RD6Al1lshY8YB/vI6qEKsaP7EK0ydhtqasODAlXoIh71MJCaWSXHgsSO7nOBcipL96lKAyi03roGQhUyq9qZwovuY1nWV41OIZMbr9KZLBCdO9ZHK+5UIYZ0n8U96UxODKCSJuD6myBUISPEkO6z2fg5x2Rt4UMVeg9PqpDVFEeCFd2HlrIYFw6dGKQKXcfCymI8qULJ1kYQK7qP95QYQLRSR6hCEVXs2FrED2dD93mRiLrZVGZcOqJcbweAlVz6w4YqREByBjO6j+O9LAYQxblGdCOEKhQpJaYfwonu83uLrP/ilDOsDCBwvDwKnxPgsW82nCpEYywkT2J07Edo73EyoRhApLcCfg+EKhQNA+NF9/mOcvyfc8sXrm+dLIdQhSo7sXjRffYOzimIAZhRBTwNTlShWeY9RGNG97lcuf7fxABMKp8tugTAPzn0JXbYGMSOM4cqFDueFd3nH7Csy7jmCVsDCNJeL4BOLv1JnWIIVcgmpKazuuZrhUpnXhEDMLIKiN0K4DcsBsoQqlCB7sOGhPxry7Zu55wjrA0gSHdqgIQqVC7D5Ub3ITq/Z05GiwEYLOV690OoQuUxqDZWdJ9vKsd7kHt+VAurthMAi31cVKlC9qQkEkexudBkN0Bd1ZAYVWEAyvWfB7COx4hF81gwOauJ0zVfa5VrDt1HDGBI9TNtAPAsh67E3lIbKapQ/KRxiPGh+zxNlnVltaRF1RiAcjxWb3NFhirEj+6zNEhn+sUAGCoeozsB/IzFwEWEKsSM7nOfiXQfMYAh6t7TvVePBfMc+lNpqhAzuk8OjD5JKgZwoK2A6z0MgMVnugtUocqV38zoPjcq1/+DGEA1iMgDG6pQXUWoQuzoPhatrMZUqEoDUEIVGv3qz43ukzaX7iMGMLLMEarQSKuOqbzoPiCz6T5iACN7FsCOKoRE6ZdkSllIMqP7KMdsuo8YwIhNwN8E4McsBrI2hmRr6RMz0ToRFh+6z/9xoPuIAYxqC02LIFShoU2WRnZ0nyXVPv+r3gCCAlWIxR6w1FShVBsrus81XOg+YgCjTRyiC8CJKvSu4l/HFTu2FjFGdB8QXSwzXwygUAU43k4Aq7j0p+hHdPzoPr5iRPcRAyjGHLftG8CJKjSteHt1bnQfsu3/lBkvBvDvVcCcrjwBi7j0J9lcHKoQN7oPAR3BnK5QZrwYwL4m4Pr3Afgei4leJKpQspUX3Sdw/Z/JTBcDeJPMoWXgQhU6Zjyst478hl7r0AQSxzCi+xBPuo8YQBGlHO9pADxuhLEJqdaRP7xjRvdZrxyedB8xgOJXAWsBbOHQlZFShdjRfYgulYktBjDUKqAXQIZLf1LTG4e3ktuE1MmsrvnqVI73isxsMYChB8aib4ILVWh8AokZQz8WTMyoh1XHiO5jxb4tM1oMYFjqSXsahSuiqooqRHU2kiewoftogNp70p1aZrQYwPC3Aq7/a1QZVYgZ3ecbyvV+KzNZDGAUmUNd4EQVevuB3+izJ6WQOIrNNV+snuOIAVSqCnC8f4ATVehNjgWTsxoBYnPst0a5/j9lBosBFKEIoA0AWJwhH4gqxI3uE7esq2TmigEURUGBKrSMS3/2oQoxpPvcm870ycwVAyjeVsD17wBTqlByptB9xABEQ9kLtANg8UmyV6lCVB9D4ng2dJ88iDpkoooBlKYKcLyHAbD4LDnFLaTaGpCazYruc4NyvD/ITBUDKGERQD64UIWOrONE99kJolUyQ8UASqrA8V4EI6oQK7qP470kM1QMoAxVgHUtgKckEpHR42RVL91HDKDsVUBmAKDFEonIOPKiIJ3JSiDEAMom5XqbAGyWSFRcm5TjyTiIAVRm5QETqpChGgBBKjExgApVAY73OICvSSQqpmuV48uzGDGAilYBFwD4lwSi7HoRZF0kYRADqHQVsAPASolE2eUrJyN0HzGAKBQBdAMAeQOtfHrYsoTuIwYQEQWOlyfIO+hlkgbQ3pMWuo8YQJRMwPXuAyCfQiu97lRC9xEDiOheYCmYUIUiqr0ALZMwiAFEUoNUIbmJpnTaoFxP6D5iAFGuAqw1AOQuuuLrH0S0TsIgBhDxKiAjt9GWRl2B0H3EAEyQTsS/AUDuoy+e7k+kUrdJGMQAjNDPZq/QANrBhCpUaT8FqP2e1qUSSzEAg7YCBaqQMOlGr1uV6/1GwiAGYJ6IOsGEKlQh9VIhhiIxAAOrgAJVSLj0I9fawPHkREUMwOAAE60HE6pQmfU0EV0hYRADMFo9BarQconEsLUscLx+CUOJd6kSgvKodXO3AjBLIjEk3adc/3QJg1QAjKyWOsCEKlRi5QFaJGEQA2Al5Xi/BxOqUIl1g3K9RyUMYgAcqwA2VKESSeg+YgCsq4AXAXRLJA4oofuIAXCPuHU1hCq0Pz1BJHQfMQDuVUA6MwBgqURiHy0OHKH7lH1XKiGojFo3d/8YgCuRAABsUq7/IQmDVADV5L2LAeQkDsiCaImEQQygurYCrvcYANnzAtcox3tSwiAGUH01gFCFthFI6D5iANWpQKhCfuB68l6EGEAVD4BlVytV6GHLismbkWIA1a2edFceQDW++97Rk+7MywwQA6h6Kdf/KaqLKnSncn0lIy8GIBoUFYg31fD59z6h+4gBiN6gwPX+CuDKKujqeuV6z8qIiwGI9ikDaC2AFxj38HmLSO5IFAMQ7fdZgOPtBtDFuIudPY7XKyMtBiA64IjQNwE8yLBn95NtC91HDED0plVA2gsBnA9eVCENQnswp0voPmIAooOaQIEqdDujLt2qHF/oPmIAoqGKiFaAB1WoF0RdMqJiAKJhKChQhS5j0JVLlONtkREVAxANtwqwrMsB/N3gLjwjdB8xANFIq4B0Zi8Ak9+aWxY4Xp+MpBiAaISKJWN3APiFif6lXP+7MoJiAKJR6KdtnRpE58MsqlAeQLuMnhiAqAgapArdbFCTb1KuL3QfMQBR0USUgRlUoZ2DBCSRGICoiFWAKVShC4XuIwYgKkkRYF0N4M8RbuITRNZ1MlJiAKISKHAyAwRE9w59ErqPcYuKhMA8tW7u3gzAiViz7lKu/0EZHakARKXfCyxCtKhC2UHSkUgMQFRqKcd7DMDXItSka5UrdB8xAFE5q4DViAZVaBtI6D5iAKJyVwE7AKyOQFNWKsfbKSMiBiAqt2zregB/rGALHhlrxW+UgRADEFWiCpiTqTRVqGNTekUoIyEGIKqUCbj+vQB+UIE/fady/UBGQAxAVGkRLUV5qUJ9IFougRcDEEWhCnC8vwK4qox/coNyvGck8mIAosgUAbQG5aEKbQHROom4GIAoQgoKVKFMGf5UpxK6jxiAKHqy47FbUFqq0AOorf2WRFoMQBRB3Xdap0bpruLSALWrmYuF7iMGIIqqlOv/CsC3S/Crb1Wu94BEWAxAFHERUSeAPUX8lb0EofuIAYiMUOB4zwG4tIi/8pLAFbqPGIDIpCpgPYpDFXqGyBK6jxiAyLAqYA+AYryttyxwMkL3EQMQGSfb+g6An4/GR4TuIwYgMlRqTkYT0IGRUYXyKPysSAxAZOxWwPUfwsioQjcp139EIigGIDJcROQB2DWMH9kJopUSOTEAEYcqwPG2Arh4GD9yoXK8bRI5MQARlyrAomsA/GUI3/okhO4jBiBiVgWkvX4AQ7m7f5ESuk/1LAwSgupS6+bunwBIH+C/71au/wGJklQAIr7qwP6pQllU9oJRkRiAqNRSrv8YgOv381/XKdcXuo8YgIj/xo9WA9j+uq9sA9GFEhgxAFE1VAGOtx3Aqtd9Seg+YgCialKMrK+jQBV61LboJomISFRlat3cfXrr5u42iUT16v8B1+xh5vvHLWgAAAAASUVORK5CYII=;" parent="1" vertex="1">
          <mxGeometry x="263.88" y="522.87" width="29.12" height="25.25" as="geometry" />
        </mxCell>
      </root>
    </mxGraphModel>
  </diagram>
</mxfile>
